<?xml version="1.0" standalone="no"?>
<!DOCTYPE svg PUBLIC "-//W3C//DTD SVG 20010904//EN"
 "http://www.w3.org/TR/2001/REC-SVG-20010904/DTD/svg10.dtd">
<svg version="1.0" xmlns="http://www.w3.org/2000/svg"
 width="25px" height="25px" viewBox="0 0 980.000000 980.000000"
 preserveAspectRatio="xMidYMid meet">
<metadata>
Created by potrace 1.16, written by Peter Selinger 2001-2019
</metadata>
<g transform="translate(0.000000,980.000000) scale(0.100000,-0.100000)"
fill="#000000" stroke="none">
<path d="M4560 9789 c-1035 -75 -1998 -463 -2800 -1128 -150 -123 -501 -475
-622 -621 -534 -647 -880 -1372 -1042 -2180 -259 -1290 18 -2648 761 -3727
277 -403 628 -778 1018 -1087 680 -539 1533 -896 2400 -1005 1488 -188 2966
303 4028 1338 427 416 739 843 992 1356 477 968 621 2065 409 3125 -169 848
-553 1624 -1130 2280 -112 128 -386 398 -509 501 -763 642 -1665 1026 -2665
1134 -174 19 -664 27 -840 14z m800 -934 c671 -83 1292 -320 1830 -699 316
-222 650 -545 881 -851 437 -578 694 -1219 785 -1955 28 -222 26 -706 -4 -933
-63 -477 -187 -887 -391 -1296 -569 -1134 -1646 -1934 -2891 -2145 -250 -42
-368 -51 -680 -51 -219 1 -333 5 -440 19 -928 113 -1734 507 -2387 1167 -292
295 -513 602 -704 974 -222 433 -354 865 -416 1365 -25 205 -25 695 0 900 60
482 186 907 393 1321 128 257 280 495 462 723 122 154 451 484 608 608 633
505 1360 794 2182 868 143 13 625 4 772 -15z"/>
<path d="M4710 7803 c-604 -43 -1168 -262 -1629 -633 -1028 -828 -1372 -2228
-845 -3438 145 -333 347 -626 614 -892 457 -456 1028 -736 1680 -826 174 -24
567 -24 740 0 659 91 1224 370 1685 831 462 462 744 1037 832 1691 23 178 23
561 -1 734 -91 659 -370 1225 -831 1685 -496 496 -1131 790 -1829 845 -120 9
-310 11 -416 3z m398 -924 c366 -39 707 -175 1004 -400 106 -80 287 -261 367
-367 560 -741 547 -1740 -32 -2462 -373 -465 -947 -740 -1547 -740 -856 0
-1623 555 -1889 1367 -207 628 -93 1302 310 1835 80 106 261 287 367 367 290
219 640 360 992 400 110 12 317 13 428 0z"/>
<path d="M4765 5810 c-319 -50 -599 -273 -718 -571 -47 -118 -61 -193 -61
-339 0 -250 76 -443 243 -622 205 -219 483 -324 772 -290 219 26 384 107 544
267 135 135 207 262 252 441 25 104 23 324 -6 429 -87 327 -344 582 -668 666
-90 23 -269 32 -358 19z"/>
</g>
</svg>
